<?xml version="1.0" encoding="UTF-8" standalone="no"?>
<!-- Created with Inkscape (http://www.inkscape.org/) -->

<svg
   xmlns:dc="http://purl.org/dc/elements/1.1/"
   xmlns:cc="http://creativecommons.org/ns#"
   xmlns:rdf="http://www.w3.org/1999/02/22-rdf-syntax-ns#"
   xmlns:svg="http://www.w3.org/2000/svg"
   xmlns="http://www.w3.org/2000/svg"
   xmlns:sodipodi="http://sodipodi.sourceforge.net/DTD/sodipodi-0.dtd"
   xmlns:inkscape="http://www.inkscape.org/namespaces/inkscape"
   width="48pt"
   height="48pt"
   viewBox="0 0 16.933334 16.933333"
   version="1.1"
   id="svg979"
   inkscape:version="0.92.4 (5da689c313, 2019-01-14)"
   sodipodi:docname="24 - Salon.svg"
   inkscape:export-filename="E:\TR Design Studio Creative\Project Design\TR Creative Design\Icon Design\Project Hiring\Icon Icons\Project - 001\002 - Beauty And Fashion\Send\Line\24 - Salon.png"
   inkscape:export-xdpi="768"
   inkscape:export-ydpi="768">
  <defs
     id="defs973" />
  <sodipodi:namedview
     id="base"
     pagecolor="#ffffff"
     bordercolor="#666666"
     borderopacity="1.0"
     inkscape:pageopacity="0.0"
     inkscape:pageshadow="2"
     inkscape:zoom="8.546875"
     inkscape:cx="32"
     inkscape:cy="32"
     inkscape:document-units="pt"
     inkscape:current-layer="layer1"
     showgrid="false"
     units="pt"
     inkscape:window-width="1366"
     inkscape:window-height="716"
     inkscape:window-x="-8"
     inkscape:window-y="-8"
     inkscape:window-maximized="1"
     inkscape:snap-bbox="true"
     inkscape:bbox-nodes="true"
     inkscape:snap-nodes="false"
     showguides="false">
    <inkscape:grid
       type="xygrid"
       id="grid1526" />
    <sodipodi:guide
       position="0.97013909,15.963209"
       orientation="56.666615,0"
       id="guide1528"
       inkscape:locked="false" />
    <sodipodi:guide
       position="0.97013909,0.97016731"
       orientation="0,56.666667"
       id="guide1530"
       inkscape:locked="false" />
    <sodipodi:guide
       position="15.963195,0.97016731"
       orientation="-56.666615,0"
       id="guide1532"
       inkscape:locked="false" />
    <sodipodi:guide
       position="15.963195,15.963209"
       orientation="0,-56.666667"
       id="guide1534"
       inkscape:locked="false" />
  </sodipodi:namedview>
  <metadata
     id="metadata976">
    <rdf:RDF>
      <cc:Work
         rdf:about="">
        <dc:format>image/svg+xml</dc:format>
        <dc:type
           rdf:resource="http://purl.org/dc/dcmitype/StillImage" />
        <dc:title></dc:title>
      </cc:Work>
    </rdf:RDF>
  </metadata>
  <g
     inkscape:label="Layer 1"
     inkscape:groupmode="layer"
     id="layer1"
     transform="translate(0,-280.06668)">
    <path
       style="color:#000000;font-style:normal;font-variant:normal;font-weight:normal;font-stretch:normal;font-size:medium;line-height:normal;font-family:sans-serif;font-variant-ligatures:normal;font-variant-position:normal;font-variant-caps:normal;font-variant-numeric:normal;font-variant-alternates:normal;font-feature-settings:normal;text-indent:0;text-align:start;text-decoration:none;text-decoration-line:none;text-decoration-style:solid;text-decoration-color:#000000;letter-spacing:normal;word-spacing:normal;text-transform:none;writing-mode:lr-tb;direction:ltr;text-orientation:mixed;dominant-baseline:auto;baseline-shift:baseline;text-anchor:start;white-space:normal;shape-padding:0;clip-rule:nonzero;display:inline;overflow:visible;visibility:visible;opacity:1;isolation:auto;mix-blend-mode:normal;color-interpolation:sRGB;color-interpolation-filters:linearRGB;solid-color:#000000;solid-opacity:1;vector-effect:none;fill:#000000;fill-opacity:1;fill-rule:nonzero;stroke:none;stroke-width:0.52916664;stroke-linecap:round;stroke-linejoin:round;stroke-miterlimit:1.5;stroke-dasharray:none;stroke-dashoffset:0;stroke-opacity:1;paint-order:markers fill stroke;color-rendering:auto;image-rendering:auto;shape-rendering:auto;text-rendering:auto;enable-background:accumulate"
       d="m 4.5564011,281.03728 c -1.9806712,0 -3.58539131,1.60407 -3.58539131,3.58475 -0.001959,3.69442 0,7.40871 0,11.08275 6.5193e-4,0.17903 0.14565821,0.32396 0.32467361,0.32468 H 15.638519 c 0.179015,-6.6e-4 0.32396,-0.14565 0.324673,-0.32468 v -4.88916 c 6.52e-4,-0.18001 -0.144666,-0.3265 -0.324673,-0.32721 v -1.95631 c -6.51e-4,-0.18001 -0.14721,-0.32536 -0.327215,-0.32467 h -0.488283 c 0.0043,-0.23497 -0.0016,-0.46366 -0.0058,-0.69047 0,-0.19127 -0.136173,-0.28678 -0.26177,-0.28678 h -0.546149 c -0.01096,-6.5e-4 -0.02206,-6.5e-4 -0.0331,0 -0.434901,0.0222 -0.401794,0.67471 0.0331,0.65254 h 0.161697 v 0.32467 h -0.488916 c -0.179013,6.5e-4 -0.323953,0.14565 -0.324671,0.32467 v 0.65188 h -0.327164 c -0.180006,6.5e-4 -0.325358,0.14722 -0.32467,0.32722 v 0.9772 c -0.181005,-6.4e-4 -0.327907,0.14621 -0.327219,0.32722 v 0.97656 h -0.324671 c 0,-2.39005 0,-4.78009 0,-7.17015 0,-1.98067 -1.604719,-3.58475 -3.5853911,-3.58475 z m 0,0.65189 h 3.9119748 c 0.604849,0 1.1643068,0.17969 1.6290841,0.48828 v 9.61473 H 9.391461 c -0.1425291,-0.4681 -0.5747126,-0.8155 -1.086696,-0.8155 H 8.1411566 v -0.81295 c 0,-1.0778 -0.8784956,-1.9563 -1.9563034,-1.9563 H 5.5329639 c -1.077811,0 -1.953758,0.87851 -1.953758,1.9563 v 0.97656 H 3.4155948 c -0.1751008,0 -0.3395008,0.0436 -0.4882782,0.11518 v -9.07807 c 0.4647743,-0.30859 1.0242322,-0.48828 1.6290845,-0.48828 z m 4.2347346,0.32085 c -0.01121,6e-5 -0.022519,6.5e-4 -0.033742,0.002 -0.275315,0.0278 -0.3928903,0.36445 -0.1948006,0.55766 l 0.6518897,0.65253 c 0.306326,0.32063 0.7811203,-0.15155 0.4621795,-0.45964 l -0.6525281,-0.65142 c -0.060894,-0.0636 -0.144935,-0.0999 -0.2329985,-0.10052 z m -1.6316329,0.32658 c -0.2926527,6.6e-4 -0.4362934,0.35669 -0.225997,0.56022 l 1.9563039,1.95631 c 0.3072807,0.34201 0.802717,-0.15616 0.4589987,-0.46155 l -1.9531229,-1.9563 c -0.061981,-0.0637 -0.1472944,-0.0994 -0.2361827,-0.0987 z m -4.8840755,0.43481 v 9.02077 H 1.6228992 c 4.89e-5,-2.39061 0,-4.77949 0,-7.17014 0,-0.70489 0.2445726,-1.34714 0.6525281,-1.85062 z m 8.4739227,0 c 0.407955,0.50348 0.651888,1.14573 0.651888,1.85062 0,2.39005 0,4.78011 0,7.17015 H 10.74935 Z m -5.2163861,6.08791 h 0.6518893 c 0.7279387,0 1.3044142,0.57647 1.3044142,1.30441 v 3.58476 H 4.2310953 v -3.58476 c 0,-0.72792 0.5739299,-1.30441 1.3018686,-1.30441 z m 8.4764711,0 h 0.977195 v 1.62909 h -0.324671 v -0.97721 c 6.52e-4,-0.18101 -0.146215,-0.32791 -0.327219,-0.32722 h -0.325305 z m -0.65189,0.97719 c 0.21954,6.6e-4 0.43306,0 0.65189,0 v 0.6519 h -0.65189 z m 1.953761,5.54109 H 13.03033 l 6e-6,-4.23707 2.28097,-2.2e-4 z M 8.1411566,291.62857 H 8.304765 c 0.276505,0 0.4882814,0.21433 0.4882814,0.49083 v 1.62909 H 8.1411566 Z m -4.7255618,0.16361 h 0.1636111 v 1.95631 H 2.9273166 v -1.4674 c 0,-0.2765 0.211776,-0.48891 0.4882782,-0.48891 z m 10.5938402,0 c -0.435016,0 -0.435016,0.65252 0,0.65252 h 0.325305 c 0.435016,0 0.435016,-0.65252 0,-0.65252 z M 1.6228992,292.4447 h 0.6525281 v 1.30379 H 1.6228992 c 4.89e-5,-0.43477 0,-0.86859 0,-1.30379 z m 7.8226713,0 c 0.9782615,1.3e-4 1.9566065,0 2.9328535,0 v 1.30379 H 9.4455582 Z m 1.9919565,0.32595 c -0.128145,0.002 -0.26692,0.001 -0.394696,0.001 -0.407363,0 -0.397944,0.64934 0.03119,0.64934 h 0.327215 c 0.47206,0 0.46234,-0.65064 0.03629,-0.65064 z m 2.571908,0.16233 c -0.444078,-0.01 -0.444078,0.66148 0,0.6519 h 0.325305 c 0.444078,0.01 0.444078,-0.66148 0,-0.6519 z m 0,1.14017 c -0.435019,0 -0.435019,0.65253 0,0.65253 h 0.325305 c 0.435019,0 0.435019,-0.65253 0,-0.65253 z m -12.3865358,0.32722 h 3.260721 v 0.97721 h -3.260721 z m 3.9100647,0 h 0.6518893 v 0.97721 H 5.5463309 c -0.00446,-1e-4 -0.00889,-1e-4 -0.013364,0 z m 1.3044143,0 c 1.8479888,1.5e-4 3.6930218,0 5.5410678,0 v 0.97721 H 6.8373879 Z"
       id="rect1474"
       inkscape:connector-curvature="0"
       sodipodi:nodetypes="ccccccccccccccccccccccccccccccsscccscsssscsccscccccccccccccccccccccccccsssccsscccccccccccccccccccsscccscccsssssssccccccccccccccccccccssssscccccccccccccccc" />
  </g>
</svg>
