<?xml version="1.0" encoding="UTF-8" standalone="no"?>
<svg
   width="192.24117mm"
   height="100.10961mm"
   viewBox="0 0 192.24117 100.10961"
   version="1.1"
   id="svg1"
   xml:space="preserve"
   xmlns:inkscape="http://www.inkscape.org/namespaces/inkscape"
   xmlns:sodipodi="http://sodipodi.sourceforge.net/DTD/sodipodi-0.dtd"
   xmlns="http://www.w3.org/2000/svg"
   xmlns:svg="http://www.w3.org/2000/svg">
   <sodipodi:namedview
     id="namedview1"
     pagecolor="none"
     bordercolor="#ffffff"
     borderopacity="0.25"
     inkscape:showpageshadow="2"
     inkscape:pageopacity="0.0"
     inkscape:pagecheckerboard="0"
     inkscape:deskcolor="#ffffff"
     inkscape:document-units="mm" />
   <defs id="defs1" />
   <g inkscape:label="Capa 1" inkscape:groupmode="layer" id="layer1" transform="translate(-12.408555,-10.506744)">
      <g id="g4">
         <g id="g2" transform="matrix(1.120609,0,0,1.120609,-14.084883,5.0381712)" inkscape:label="g2">
            <path d="M 58.23,69.992 73.223,45.884 c 0.049,-0.078 0.09,-0.16 0.122,-0.245 2.589,-4.222 3.956,-9.045 3.956,-13.969 0,-14.772 -12.018,-26.79 -26.79,-26.79 -14.772,0 -26.791,12.018 -26.791,26.79 0,4.925 1.369,9.75 3.96,13.975 0.03,0.074 0.065,0.146 0.107,0.216 l 14.455,24.191 c -11.221,1.586 -18.6,6.2 -18.6,11.797 0,6.935 11.785,12.366 26.829,12.366 15.044,0 26.829,-5.432 26.829,-12.366 0.001,-5.623 -7.722,-10.34 -19.07,-11.857 z M 30.373,44.294 C 27.983,40.49 26.72,36.125 26.72,31.67 26.72,18.552 37.392,7.88 50.511,7.88 c 13.118,0 23.79,10.672 23.79,23.79 0,4.457 -1.263,8.822 -3.652,12.624 -0.05,0.08 -0.091,0.163 -0.124,0.249 L 54.685,70.01 c -0.238,0.365 -0.285,0.448 -0.576,0.926 l -4,6.432 -19.602,-32.804 c -0.035,-0.093 -0.08,-0.184 -0.134,-0.27 z m 20.099,46.921 c -14.043,0 -23.829,-4.937 -23.829,-9.366 0,-4.02 7.37,-7.808 17.283,-8.981 l 4.87,8.151 c 0.269,0.449 0.751,0.726 1.274,0.73 0.004,0 0.009,0 0.013,0 0.518,0 1,-0.268 1.274,-0.708 l 5.12,-8.232 c 10.071,1.091 17.823,4.975 17.823,9.04 0.001,4.43 -9.785,9.366 -23.828,9.366 z" id="path1" style="fill:#ffffff; stroke:none;" />
         </g>
         <path d="m 44.781464,61.702893 c 0,-11.22042 9.096357,-20.316762 20.316737,-20.316762 0,11.220352 -9.09636,20.316762 -20.316737,20.316762 m -3.693945,0 c 0,-11.22042 -9.096355,-20.316762 -20.316732,-20.316762 0,11.220352 9.096355,20.316762 20.316732,20.316762 m 1.846971,-9.2349 C 44.829485,47.939203 48.072779,44.1086 52.160135,41.484004 51.775987,35.420434 48.975946,29.42325 44.2403,24.689498 l -1.30581,-1.305791 -1.305807,1.305791 c -4.733804,4.733752 -7.535659,10.730936 -7.919835,16.794506 4.087356,2.624596 7.330643,6.455199 9.225642,10.983989 z" id="path1-9" style="fill:#ffffff; stroke:none;" />
         <text xml:space="preserve" style="font-size:25.4px; letter-spacing:1.24354px; fill:#ffffff;" x="75.34816" y="58.685631" id="text3"><tspan sodipodi:role="line" id="tspan3" style="font-style:normal; font-variant:normal; font-weight:normal; font-stretch:normal; font-size:25.4px; font-family:'Arial Rounded MT Bold'; -inkscape-font-specification:'Arial Rounded MT Bold, '; letter-spacing:1.24354px; fill:#ffffff; fill-opacity:1;">Tu Cita</tspan></text>
         <text xml:space="preserve" style="font-style:normal; font-variant:normal; font-weight:normal; font-stretch:normal; font-size:7.05556px; font-family:'Arial Rounded MT Bold'; -inkscape-font-specification:'Arial Rounded MT Bold, '; letter-spacing:1.24354px; fill:#ffffff;" x="78.387238" y="70.422752" id="text4"><tspan sodipodi:role="line" id="tspan4" style="font-size:7.05556px;">¡Tu Cita perfecta te espera!</tspan></text>
      </g>
   </g>
</svg>
